<?xml version="1.0" encoding="utf-8"?>
<!-- Generator: Adobe Illustrator 19.0.0, SVG Export Plug-In . SVG Version: 6.00 Build 0)  -->
<svg version="1.1" id="Layer_1" xmlns="http://www.w3.org/2000/svg" xmlns:xlink="http://www.w3.org/1999/xlink" x="0px" y="0px"
	 viewBox="0 0 24.1 24.1" style="enable-background:new 0 0 24.1 24.1;" xml:space="preserve">
<style type="text/css">
	.st0{fill:#EF4137;}
</style>
<path class="st0" d="M35.2,31.6L25.6,22c0.8-1,1.4-2.2,1.9-3.4c3.6-8.6-0.4-18.5-9-22.1c-2.1-0.9-4.3-1.3-6.6-1.3l0,0
	C2.8-4.8-4.8,2.8-4.8,12.1c0,6.8,4.1,12.9,10.3,15.5c5.8,2.4,12.1,1.4,16.8-2.2l9.5,9.5L35.2,31.6z M0,12.1C0,5.4,5.4,0,12.1,0
	c6.7,0,12.1,5.4,12.1,12.1s-5.4,12.1-12.1,12.1C5.4,24.1,0,18.7,0,12.1z"/>
</svg>
